<svg width="49" height="45" viewBox="0 0 49 45" fill="none" xmlns="http://www.w3.org/2000/svg">
<path d="M13.6111 31.425H35.3889M17.9667 36.4575H31.0333M24.5 8.27564L27.1919 13.5767L33.2111 14.4268L28.8556 18.5531L29.8838 24.3796L24.5 21.6287L19.1162 24.3796L20.1444 18.5531L15.7889 14.4268L21.8081 13.5767L24.5 8.27564ZM8.31905 42.4965H40.6809C42.5692 42.4965 44.1 40.9657 44.1 39.0774V5.65571C44.1 3.76742 42.5692 2.23666 40.6809 2.23666H8.31904C6.43075 2.23666 4.89999 3.76742 4.89999 5.65571V39.0774C4.89999 40.9657 6.43076 42.4965 8.31905 42.4965Z" stroke="#BCE9F5" stroke-width="3.41905" stroke-linecap="round" stroke-linejoin="round"/>
</svg>
