<svg width="145" height="73" viewBox="0 0 145 73" fill="none" xmlns="http://www.w3.org/2000/svg">
<path opacity="0.8" d="M91.8104 7.54565C97.0843 7.13788 101.21 10.619 103.205 15.3367C109.725 13.7505 117.865 14.0014 120.89 23.5144C124.869 36.0244 116.091 35.1645 111.296 33.8874C109.397 33.3819 107.414 33.1344 105.48 33.4831L104.663 33.6296C104.797 41.4148 105.021 48.3176 105.401 49.5017C106.338 52.4201 100.644 63.2616 87.9607 49.904C75.2771 36.5463 83.9279 13.2582 87.0242 9.33764C87.9055 8.22217 89.6974 7.70905 91.8104 7.54565Z" fill="#B2C537"/>
<ellipse opacity="0.8" cx="71.3672" cy="36.286" rx="20.469" ry="18.6082" fill="#E3809F"/>
<ellipse opacity="0.8" cx="139.552" cy="54.8608" rx="5.44798" ry="4.95271" fill="#29AFD4"/>
<path opacity="0.8" d="M120.507 20.7012C124.97 20.7013 128.587 24.3196 128.587 28.7822V50.082C128.587 54.5381 124.975 58.1503 120.519 58.1504C115.136 58.1504 111.358 52.9853 112.24 47.6748C113.192 41.9453 113.185 36.8991 112.229 31.168C111.343 25.8585 115.124 20.7012 120.507 20.7012ZM121.958 1.14441e-05C126.39 7.57282e-05 129.983 3.12468 129.983 6.97853C129.982 10.8322 126.39 13.956 121.958 13.9561C117.527 13.9561 113.933 9.59536 113.933 6.97853C113.933 4.36175 117.526 1.14441e-05 121.958 1.14441e-05Z" fill="#F4BA35"/>
<path opacity="0.8" d="M52.6979 8.00218C56.3742 6.43206 63.5312 5.07692 62.3853 19.0809C61.6222 28.407 57.1736 33.6677 51.4846 38.2713C57.7086 40.4841 63.1274 43.8328 67.0293 51.3183C73.4789 63.6919 66.2783 64.8575 62.3312 64.679C60.8359 64.6113 59.4226 64.0621 58.0997 63.3616L42.747 55.2326C42.8015 60.03 39.4253 64.2887 34.5952 65.2276C30.7192 65.981 26.7596 64.4085 24.7894 60.9866C19.5787 51.9357 11.1434 33.697 19.5819 21.9704C27.5194 10.9403 33.8352 18.941 37.0287 25.0783L49.0992 10.8715C50.1068 9.68549 51.2667 8.61346 52.6979 8.00218Z" fill="#29AFD4"/>
<line opacity="0.8" x1="13.9669" y1="19.728" x2="8.67325" y2="13.3064" stroke="#F4BA35" stroke-width="2.66684" stroke-linecap="round"/>
<line opacity="0.8" x1="10.5049" y1="23.8826" x2="2.96008" y2="20.3705" stroke="#F4BA35" stroke-width="2.66684" stroke-linecap="round"/>
<line opacity="0.8" x1="9.6559" y1="30.1534" x2="1.33366" y2="30.1542" stroke="#F4BA35" stroke-width="2.66684" stroke-linecap="round"/>
</svg>
