<svg width="353" height="316" viewBox="0 0 353 316" fill="none" xmlns="http://www.w3.org/2000/svg">
<path d="M296.677 151.961C296.677 151.961 390.257 188.006 315.653 269.871C315.653 269.871 301.477 282.679 311.082 260.72C311.082 260.72 291.419 280.39 302.853 255.691C302.853 255.691 283.647 269.414 293.709 250.201C303.767 230.988 316.568 220.469 310.625 204.457C310.625 204.457 297.82 189.362 287.762 180.672C277.708 171.982 296.677 151.961 296.677 151.961Z" fill="#F9B0C4"/>
<mask id="mask0_3_32" style="mask-type:luminance" maskUnits="userSpaceOnUse" x="0" y="116" width="106" height="84">
<path d="M0 116.61H105.771V199.512H0V116.61Z" fill="white"/>
</mask>
<g mask="url(#mask0_3_32)">
<path d="M105.634 185.995C105.634 185.995 20.5501 239.084 0.0838317 130.211C0.0838317 130.211 -1.61153 111.178 10.1417 132.063C10.1417 132.063 6.26714 104.518 19.11 128.516C19.11 128.516 19.7081 104.911 28.9926 124.508C38.2771 144.11 38.9743 160.667 55.3335 165.551C55.3335 165.551 75.0874 164.404 88.0788 161.597C101.07 158.789 105.634 185.995 105.634 185.995Z" fill="#F9B0C4"/>
</g>
<path d="M135.873 203.192H174.824V291.659H135.873V203.192Z" fill="#F9B0C4"/>
<mask id="mask1_3_32" style="mask-type:luminance" maskUnits="userSpaceOnUse" x="114" y="262" width="62" height="54">
<path d="M114.549 262.907H175.018V316H114.549V262.907Z" fill="white"/>
</mask>
<g mask="url(#mask1_3_32)">
<path d="M174.824 263.813V315.707H149.569C149.569 315.707 128.569 316.32 120.355 315.707C112.138 315.101 116.096 308.403 116.096 308.403L135.876 291.655V263.813H174.824Z" fill="#E3809F"/>
</g>
<path d="M201.15 203.192H240.101V291.659H201.15V203.192Z" fill="#F9B0C4"/>
<mask id="mask2_3_32" style="mask-type:luminance" maskUnits="userSpaceOnUse" x="179" y="262" width="62" height="54">
<path d="M179.895 262.907H240.364V316H179.895V262.907Z" fill="white"/>
</mask>
<g mask="url(#mask2_3_32)">
<path d="M240.097 263.813V315.707H214.842C214.842 315.707 193.843 316.32 185.629 315.707C177.411 315.101 181.369 308.403 181.369 308.403L201.15 291.655V263.813H240.097Z" fill="#E3809F"/>
</g>
<mask id="mask3_3_32" style="mask-type:luminance" maskUnits="userSpaceOnUse" x="44" y="0" width="309" height="222">
<path d="M44.327 0H352.574V221.944H44.327V0Z" fill="white"/>
</mask>
<g mask="url(#mask3_3_32)">
<path d="M69.1746 0.0304858H151.207C151.207 0.0304858 139.256 71.6052 192.444 71.6052C257.489 71.6052 248.62 0.0304858 248.62 0.0304858L351.161 10.0769C351.161 10.0769 380.21 229.601 175.133 220.991C-29.945 212.381 69.1746 0.0304858 69.1746 0.0304858Z" fill="#F9B0C4"/>
</g>
<path d="M245.85 128.779C245.85 129.339 245.824 129.899 245.77 130.455C245.713 131.011 245.633 131.568 245.523 132.116C245.416 132.665 245.279 133.21 245.115 133.747C244.951 134.28 244.764 134.81 244.551 135.328C244.334 135.846 244.098 136.349 243.831 136.844C243.568 137.339 243.282 137.82 242.97 138.284C242.658 138.753 242.326 139.202 241.968 139.633C241.614 140.067 241.237 140.483 240.84 140.879C240.448 141.275 240.033 141.652 239.598 142.006C239.164 142.361 238.714 142.696 238.25 143.005C237.785 143.317 237.305 143.607 236.81 143.869C236.318 144.132 235.811 144.372 235.293 144.59C234.775 144.803 234.249 144.99 233.712 145.153C233.175 145.317 232.634 145.451 232.085 145.561C231.537 145.672 230.981 145.752 230.424 145.809C229.868 145.862 229.308 145.889 228.748 145.889C228.188 145.889 227.628 145.862 227.072 145.809C226.512 145.752 225.959 145.672 225.411 145.561C224.862 145.451 224.317 145.317 223.784 145.153C223.247 144.99 222.721 144.803 222.203 144.59C221.685 144.372 221.178 144.132 220.683 143.869C220.191 143.607 219.711 143.317 219.246 143.005C218.778 142.696 218.328 142.361 217.898 142.006C217.463 141.652 217.048 141.275 216.652 140.879C216.256 140.483 215.882 140.067 215.524 139.633C215.17 139.202 214.838 138.753 214.526 138.284C214.214 137.82 213.928 137.339 213.661 136.844C213.398 136.349 213.158 135.846 212.945 135.328C212.732 134.81 212.541 134.28 212.381 133.747C212.217 133.21 212.08 132.665 211.973 132.116C211.863 131.568 211.779 131.011 211.726 130.455C211.669 129.899 211.642 129.339 211.642 128.779C211.642 128.219 211.669 127.659 211.726 127.099C211.779 126.543 211.863 125.99 211.973 125.438C212.08 124.889 212.217 124.348 212.381 123.811C212.541 123.274 212.732 122.748 212.945 122.23C213.158 121.712 213.398 121.205 213.661 120.71C213.928 120.218 214.214 119.738 214.526 119.27C214.838 118.805 215.17 118.355 215.524 117.921C215.882 117.49 216.256 117.075 216.652 116.679C217.048 116.283 217.463 115.906 217.898 115.551C218.328 115.193 218.778 114.862 219.246 114.549C219.711 114.237 220.191 113.951 220.683 113.684C221.178 113.422 221.685 113.182 222.203 112.968C222.721 112.755 223.247 112.564 223.784 112.404C224.317 112.241 224.862 112.103 225.411 111.993C225.959 111.886 226.512 111.802 227.072 111.749C227.628 111.692 228.188 111.665 228.748 111.665C229.308 111.665 229.868 111.692 230.424 111.749C230.981 111.802 231.537 111.886 232.085 111.993C232.634 112.103 233.175 112.241 233.712 112.404C234.249 112.564 234.775 112.755 235.293 112.968C235.811 113.182 236.318 113.422 236.81 113.684C237.305 113.951 237.785 114.237 238.25 114.549C238.714 114.862 239.164 115.193 239.598 115.551C240.033 115.906 240.448 116.283 240.84 116.679C241.237 117.075 241.614 117.49 241.968 117.921C242.326 118.355 242.658 118.805 242.97 119.27C243.282 119.738 243.568 120.218 243.831 120.71C244.098 121.205 244.334 121.712 244.551 122.23C244.764 122.748 244.951 123.274 245.115 123.811C245.279 124.348 245.416 124.889 245.523 125.438C245.633 125.99 245.713 126.543 245.77 127.099C245.824 127.659 245.85 128.219 245.85 128.779Z" fill="#E3809F"/>
<path d="M163.303 128.779C163.303 129.339 163.277 129.899 163.223 130.455C163.166 131.011 163.086 131.568 162.976 132.116C162.869 132.665 162.732 133.21 162.568 133.747C162.404 134.28 162.217 134.81 162.004 135.328C161.787 135.846 161.551 136.349 161.284 136.844C161.021 137.339 160.735 137.82 160.423 138.284C160.111 138.753 159.779 139.202 159.421 139.633C159.067 140.067 158.69 140.483 158.293 140.879C157.901 141.275 157.486 141.652 157.051 142.006C156.617 142.361 156.167 142.696 155.703 143.005C155.238 143.317 154.758 143.607 154.263 143.869C153.771 144.132 153.264 144.372 152.746 144.59C152.228 144.803 151.702 144.99 151.165 145.153C150.628 145.317 150.087 145.451 149.538 145.561C148.99 145.672 148.434 145.752 147.877 145.809C147.321 145.862 146.761 145.889 146.201 145.889C145.641 145.889 145.081 145.862 144.525 145.809C143.965 145.752 143.412 145.672 142.864 145.561C142.315 145.451 141.77 145.317 141.237 145.153C140.7 144.99 140.174 144.803 139.656 144.59C139.138 144.372 138.631 144.132 138.136 143.869C137.644 143.607 137.164 143.317 136.699 143.005C136.231 142.696 135.781 142.361 135.351 142.006C134.916 141.652 134.501 141.275 134.105 140.879C133.709 140.483 133.335 140.067 132.977 139.633C132.623 139.202 132.291 138.753 131.979 138.284C131.667 137.82 131.381 137.339 131.114 136.844C130.851 136.349 130.611 135.846 130.398 135.328C130.185 134.81 129.994 134.28 129.834 133.747C129.67 133.21 129.533 132.665 129.426 132.116C129.316 131.568 129.232 131.011 129.179 130.455C129.122 129.899 129.095 129.339 129.095 128.779C129.095 128.219 129.122 127.659 129.179 127.099C129.232 126.543 129.316 125.99 129.426 125.438C129.533 124.889 129.67 124.348 129.834 123.811C129.994 123.274 130.185 122.748 130.398 122.23C130.611 121.712 130.851 121.205 131.114 120.71C131.381 120.218 131.667 119.738 131.979 119.27C132.291 118.805 132.623 118.355 132.977 117.921C133.335 117.49 133.709 117.075 134.105 116.679C134.501 116.283 134.916 115.906 135.351 115.551C135.781 115.193 136.231 114.862 136.699 114.549C137.164 114.237 137.644 113.951 138.136 113.684C138.631 113.422 139.138 113.182 139.656 112.968C140.174 112.755 140.7 112.564 141.237 112.404C141.77 112.241 142.315 112.103 142.864 111.993C143.412 111.886 143.965 111.802 144.525 111.749C145.081 111.692 145.641 111.665 146.201 111.665C146.761 111.665 147.321 111.692 147.877 111.749C148.434 111.802 148.99 111.886 149.538 111.993C150.087 112.103 150.628 112.241 151.165 112.404C151.702 112.564 152.228 112.755 152.746 112.968C153.264 113.182 153.771 113.422 154.263 113.684C154.758 113.951 155.238 114.237 155.703 114.549C156.167 114.862 156.617 115.193 157.051 115.551C157.486 115.906 157.901 116.283 158.293 116.679C158.69 117.075 159.067 117.49 159.421 117.921C159.779 118.355 160.111 118.805 160.423 119.27C160.735 119.738 161.021 120.218 161.284 120.71C161.551 121.205 161.787 121.712 162.004 122.23C162.217 122.748 162.404 123.274 162.568 123.811C162.732 124.348 162.869 124.889 162.976 125.438C163.086 125.99 163.166 126.543 163.223 127.099C163.277 127.659 163.303 128.219 163.303 128.779Z" fill="#E3809F"/>
<path d="M225.826 108.633C225.826 109.235 225.795 109.833 225.738 110.431C225.677 111.025 225.59 111.62 225.475 112.206C225.357 112.793 225.212 113.376 225.037 113.951C224.862 114.523 224.664 115.086 224.431 115.643C224.203 116.195 223.948 116.736 223.666 117.266C223.384 117.795 223.075 118.31 222.74 118.805C222.408 119.304 222.05 119.788 221.673 120.249C221.292 120.713 220.888 121.155 220.465 121.582C220.043 122.005 219.597 122.409 219.136 122.786C218.671 123.167 218.191 123.525 217.692 123.857C217.193 124.192 216.682 124.5 216.153 124.782C215.623 125.064 215.082 125.32 214.53 125.548C213.974 125.781 213.41 125.982 212.838 126.154C212.263 126.329 211.684 126.474 211.093 126.592C210.507 126.71 209.916 126.798 209.318 126.855C208.724 126.916 208.126 126.943 207.524 126.943C206.925 126.943 206.327 126.916 205.733 126.855C205.135 126.798 204.54 126.71 203.954 126.592C203.367 126.474 202.784 126.329 202.213 126.154C201.637 125.982 201.074 125.781 200.521 125.548C199.969 125.32 199.428 125.064 198.898 124.782C198.369 124.5 197.854 124.192 197.359 123.857C196.86 123.525 196.38 123.167 195.915 122.786C195.45 122.409 195.008 122.005 194.585 121.582C194.159 121.155 193.759 120.713 193.378 120.249C192.997 119.788 192.642 119.304 192.307 118.805C191.976 118.31 191.667 117.795 191.385 117.266C191.103 116.736 190.848 116.195 190.616 115.643C190.387 115.086 190.185 114.523 190.014 113.951C189.838 113.376 189.694 112.793 189.576 112.206C189.457 111.62 189.37 111.025 189.313 110.431C189.252 109.833 189.225 109.235 189.225 108.633C189.225 108.034 189.252 107.436 189.313 106.838C189.37 106.244 189.457 105.65 189.576 105.063C189.694 104.476 189.838 103.893 190.014 103.318C190.185 102.746 190.387 102.183 190.616 101.626C190.848 101.074 191.103 100.533 191.385 100.003C191.667 99.4739 191.976 98.9595 192.307 98.4643C192.642 97.9652 192.997 97.4813 193.378 97.0204C193.759 96.5556 194.159 96.1136 194.585 95.6869C195.008 95.264 195.45 94.8602 195.915 94.483C196.38 94.102 196.86 93.7439 197.359 93.4125C197.854 93.0772 198.369 92.7686 198.898 92.4867C199.428 92.2048 199.969 91.9495 200.521 91.7171C201.074 91.4885 201.637 91.2866 202.213 91.1152C202.784 90.9399 203.367 90.7951 203.954 90.677C204.54 90.5589 205.135 90.4713 205.729 90.4142C206.327 90.3532 206.925 90.3265 207.524 90.3265C208.126 90.3265 208.724 90.3532 209.318 90.4142C209.916 90.4713 210.507 90.5589 211.093 90.677C211.684 90.7951 212.263 90.9399 212.838 91.1152C213.41 91.2866 213.974 91.4885 214.53 91.7171C215.082 91.9495 215.623 92.2048 216.153 92.4867C216.682 92.7686 217.193 93.0772 217.692 93.4125C218.191 93.7439 218.671 94.102 219.136 94.483C219.597 94.8602 220.043 95.264 220.465 95.6869C220.888 96.1136 221.292 96.5556 221.673 97.0204C222.05 97.4813 222.408 97.9652 222.74 98.4643C223.075 98.9595 223.384 99.4739 223.666 100.003C223.948 100.533 224.203 101.074 224.431 101.626C224.664 102.183 224.862 102.746 225.037 103.318C225.212 103.893 225.357 104.476 225.475 105.063C225.59 105.65 225.677 106.244 225.738 106.838C225.795 107.436 225.826 108.034 225.826 108.633Z" fill="#EFFFFF"/>
<path d="M186.852 108.633C186.852 109.235 186.821 109.833 186.764 110.431C186.707 111.025 186.619 111.62 186.501 112.206C186.383 112.793 186.238 113.376 186.063 113.951C185.892 114.523 185.69 115.086 185.461 115.643C185.229 116.195 184.973 116.736 184.691 117.266C184.41 117.795 184.101 118.31 183.77 118.805C183.434 119.304 183.08 119.788 182.699 120.249C182.318 120.713 181.914 121.155 181.491 121.582C181.068 122.005 180.626 122.409 180.162 122.786C179.697 123.167 179.217 123.525 178.718 123.857C178.219 124.192 177.708 124.5 177.179 124.782C176.649 125.064 176.108 125.32 175.556 125.548C174.999 125.781 174.439 125.982 173.864 126.154C173.289 126.329 172.71 126.474 172.123 126.592C171.532 126.71 170.942 126.798 170.344 126.855C169.749 126.916 169.151 126.943 168.553 126.943C167.951 126.943 167.353 126.916 166.759 126.855C166.161 126.798 165.57 126.71 164.98 126.592C164.393 126.474 163.814 126.329 163.238 126.154C162.667 125.982 162.103 125.781 161.547 125.548C160.995 125.32 160.454 125.064 159.924 124.782C159.394 124.5 158.884 124.192 158.385 123.857C157.886 123.525 157.406 123.167 156.941 122.786C156.48 122.409 156.034 122.005 155.611 121.582C155.188 121.155 154.785 120.713 154.404 120.249C154.023 119.788 153.668 119.304 153.333 118.805C153.002 118.31 152.693 117.795 152.411 117.266C152.129 116.736 151.874 116.195 151.645 115.643C151.413 115.086 151.211 114.523 151.04 113.951C150.864 113.376 150.719 112.793 150.601 112.206C150.483 111.62 150.396 111.025 150.339 110.431C150.281 109.833 150.251 109.235 150.251 108.633C150.251 108.034 150.281 107.436 150.339 106.838C150.396 106.244 150.483 105.65 150.601 105.063C150.719 104.476 150.864 103.893 151.04 103.318C151.211 102.746 151.413 102.183 151.645 101.626C151.874 101.074 152.129 100.533 152.411 100.003C152.693 99.4739 153.002 98.9595 153.333 98.4643C153.668 97.9652 154.023 97.4813 154.404 97.0204C154.785 96.5556 155.188 96.1136 155.611 95.6869C156.034 95.264 156.48 94.8602 156.941 94.483C157.406 94.102 157.886 93.7439 158.385 93.4125C158.884 93.0772 159.394 92.7686 159.924 92.4867C160.454 92.2048 160.995 91.9495 161.547 91.7171C162.103 91.4885 162.667 91.2866 163.238 91.1152C163.814 90.9399 164.393 90.7951 164.98 90.677C165.57 90.5589 166.161 90.4713 166.759 90.4142C167.353 90.3532 167.951 90.3265 168.553 90.3265C169.151 90.3265 169.749 90.3532 170.344 90.4142C170.942 90.4713 171.532 90.5589 172.123 90.677C172.71 90.7951 173.289 90.9399 173.864 91.1152C174.439 91.2866 174.999 91.4885 175.556 91.7171C176.108 91.9495 176.649 92.2048 177.179 92.4867C177.708 92.7686 178.219 93.0772 178.718 93.4125C179.217 93.7439 179.697 94.102 180.162 94.483C180.626 94.8602 181.068 95.264 181.491 95.6869C181.914 96.1136 182.318 96.5556 182.699 97.0204C183.08 97.4813 183.434 97.9652 183.77 98.4643C184.101 98.9595 184.41 99.4739 184.691 100.003C184.973 100.533 185.229 101.074 185.461 101.626C185.69 102.183 185.892 102.746 186.063 103.318C186.238 103.893 186.383 104.476 186.501 105.063C186.619 105.65 186.707 106.244 186.764 106.838C186.821 107.436 186.852 108.034 186.852 108.633Z" fill="#EFFFFF"/>
<path d="M165.201 167.681C165.201 179.396 169.109 189.72 175.053 195.805C178.6 199.439 182.874 201.557 187.469 201.557C199.767 201.557 209.741 186.391 209.741 167.681C209.741 163.109 209.147 158.751 208.065 154.773C204.731 142.467 196.769 133.804 187.469 133.804C175.175 133.804 165.201 148.971 165.201 167.681Z" fill="#1F1D1E"/>
<path d="M174.131 186.924C174.131 189.999 174.447 192.974 175.057 195.805C178.603 199.439 182.874 201.557 187.473 201.557C199.771 201.557 209.745 186.391 209.745 167.681C209.745 163.109 209.15 158.751 208.068 154.773C205.623 153.802 203.02 153.28 200.327 153.28C185.861 153.28 174.131 168.344 174.131 186.924Z" fill="#EF6946"/>
<path d="M207.787 118.237C207.017 118.237 206.236 118.142 205.451 117.932C200.464 116.599 196.94 111.044 194.97 101.421C194.749 100.346 195.443 99.2948 196.521 99.0738C197.595 98.8529 198.647 99.5462 198.868 100.624C200.487 108.526 203.112 113.182 206.468 114.084C210.377 115.136 215.139 110.979 216.644 109.292C217.372 108.469 218.629 108.396 219.448 109.124C220.267 109.852 220.347 111.105 219.62 111.928C219.368 112.218 213.966 118.237 207.79 118.237H207.787Z" fill="#1F1D1E"/>
<path d="M168.286 118.237C162.111 118.237 156.709 112.218 156.457 111.928C155.726 111.105 155.806 109.848 156.628 109.12C157.451 108.393 158.705 108.469 159.433 109.288C160.937 110.979 165.7 115.136 169.608 114.084C172.965 113.181 175.594 108.522 177.209 100.621C177.43 99.5424 178.482 98.849 179.556 99.07C180.634 99.291 181.327 100.342 181.106 101.421C179.141 111.044 175.613 116.595 170.626 117.928C169.841 118.138 169.06 118.233 168.286 118.233V118.237Z" fill="#1F1D1E"/>
</svg>
