<svg width="22" height="22" viewBox="0 0 22 22" fill="none" xmlns="http://www.w3.org/2000/svg">
<path d="M15 12.5C10.5511 14.0348 9.08449 15.7437 8 20C6.9155 15.7437 5.4489 14.0348 1 12.5C5.4489 10.9653 6.9155 9.25638 8 5C9.08449 9.25638 10.5511 10.9653 15 12.5Z" stroke="#EAA400" stroke-width="2" stroke-linecap="round" stroke-linejoin="round"/>
<path d="M21 5.50002C18.4577 6.42084 17.6197 7.44622 17 10C16.3803 7.44622 15.5422 6.42084 13 5.50002C15.5422 4.5792 16.3803 3.55381 17 1C17.6197 3.55381 18.4577 4.5792 21 5.50002Z" stroke="#EAA400" stroke-width="2" stroke-linecap="round" stroke-linejoin="round"/>
<path d="M21 18.5C19.4112 19.0115 18.8874 19.5812 18.5 21C18.1127 19.5812 17.5889 19.0115 16 18.5C17.5889 17.9884 18.1127 17.4188 18.5 16C18.8874 17.4188 19.4112 17.9884 21 18.5Z" stroke="#EAA400" stroke-width="2" stroke-linecap="round" stroke-linejoin="round"/>
</svg>
