<svg width="100" height="100" viewBox="0 0 100 100" fill="none" xmlns="http://www.w3.org/2000/svg">
<circle cx="50" cy="50" r="50" fill="#B2C537" fill-opacity="0.19"/>
<rect x="29" y="29" width="42" height="42" rx="21" fill="#B2C537" fill-opacity="0.19"/>
<path d="M46.2636 61.34C48.11 66.065 52.2371 68.9 56.9583 68.9C59.0874 68.9 61.2166 68.3468 63.068 67.2405L68.9 68.8078L67.2337 62.9995C68.3446 61.1556 68.9 59.0351 68.9 56.9146C68.9 52.3049 66.065 48.11 61.34 46.22M46.2636 61.34C54.5425 61.34 61.34 54.5229 61.34 46.22M46.2636 61.34C43.562 61.34 40.9476 60.6408 38.5946 59.2424L31.2743 61.2526L33.2787 53.9111C31.7972 51.6387 31.1 48.9294 31.1 46.22C31.1 37.9171 37.8975 31.1 46.1764 31.1C54.4554 31.1 61.34 37.9171 61.34 46.22M42.44 40.9075C43.2345 38.2724 48.5975 37.5698 49.7893 40.9075C51.0804 44.7723 46.0153 46.5078 46.0153 49.055M46.22 53.78V54.725" stroke="#9AAA2C" stroke-width="3.7" stroke-linecap="round" stroke-linejoin="round"/>
</svg>
