<svg width="33" height="30" viewBox="0 0 33 30" fill="none" xmlns="http://www.w3.org/2000/svg">
<path d="M23.6429 27H31.1429V24C31.1429 21.5146 29.1282 19.5 26.6429 19.5C25.2095 19.5 23.9325 20.1702 23.1086 21.2143M23.6429 27H8.64288M23.6429 27V24C23.6429 23.0157 23.4533 22.0755 23.1086 21.2143M8.64288 27H1.14288V24C1.14288 21.5146 3.15761 19.5 5.64288 19.5C7.0763 19.5 8.35317 20.1702 9.17726 21.2143M8.64288 27V24C8.64288 23.0157 8.83251 22.0755 9.17726 21.2143M9.17726 21.2143C10.2831 18.4515 12.9851 16.5 16.1429 16.5C19.3007 16.5 22.0026 18.4515 23.1086 21.2143M20.6429 7.5C20.6429 9.98527 18.6282 12 16.1429 12C13.6575 12 11.6429 9.98527 11.6429 7.5C11.6429 5.01472 13.6575 3 16.1429 3C18.6282 3 20.6429 5.01472 20.6429 7.5ZM29.6429 12C29.6429 13.6569 28.2998 15 26.6429 15C24.986 15 23.6429 13.6569 23.6429 12C23.6429 10.3431 24.986 9 26.6429 9C28.2998 9 29.6429 10.3431 29.6429 12ZM8.64288 12C8.64288 13.6569 7.29974 15 5.64288 15C3.98603 15 2.64288 13.6569 2.64288 12C2.64288 10.3431 3.98603 9 5.64288 9C7.29974 9 8.64288 10.3431 8.64288 12Z" stroke="#092831" stroke-width="2.28571" stroke-linecap="round" stroke-linejoin="round"/>
</svg>
