<svg width="209" height="229" viewBox="0 0 209 229" fill="none" xmlns="http://www.w3.org/2000/svg">
<path fill-rule="evenodd" clip-rule="evenodd" d="M155.139 87.2002C175.146 87.2002 192.586 100.816 197.438 120.226L207.758 161.508C212.138 179.028 201.486 196.782 183.965 201.162L169.771 204.711V207.101H180.671C186.691 207.101 191.571 211.98 191.571 218C191.571 224.02 186.691 228.9 180.671 228.9H28.0708C22.0512 228.9 17.1716 224.02 17.1714 218C17.1716 211.98 22.0512 207.101 28.0708 207.101H38.9712V204.711L24.7769 201.162C7.25661 196.782 -3.39584 179.028 0.983935 161.508L11.3042 120.226C16.1566 100.817 33.5958 87.2004 53.6021 87.2002H155.139ZM60.771 207.101H104.371C103.759 207.101 103.156 207.065 102.562 207H106.179C105.585 207.065 104.982 207.101 104.371 207.101H147.971V152.601H60.771V207.101ZM53.6021 109C43.5991 109 34.8799 115.808 32.4537 125.513L22.1333 166.795C20.6736 172.635 24.224 178.553 30.064 180.013L38.9712 182.239V152.601C38.9712 140.561 48.7313 130.801 60.771 130.801H147.971C160.011 130.801 169.771 140.561 169.771 152.601V182.239L178.678 180.013C184.518 178.553 188.069 172.635 186.609 166.795L176.289 125.513C173.862 115.808 165.142 109 155.139 109H53.6021ZM104.371 0C128.45 0 147.971 19.521 147.971 43.6006C147.971 67.6799 128.45 87.2002 104.371 87.2002C80.2915 87.1999 60.7714 67.6797 60.771 43.6006C60.771 19.5212 80.2913 0.000295855 104.371 0ZM104.371 21.8008C92.3311 21.8011 82.5708 31.561 82.5708 43.6006C82.5712 55.6399 92.3313 65.4001 104.371 65.4004C116.41 65.4004 126.171 55.6401 126.171 43.6006C126.171 31.5608 116.41 21.8008 104.371 21.8008Z" fill="#F5DCA2"/>
</svg>
