<svg width="49" height="45" viewBox="0 0 49 45" fill="none" xmlns="http://www.w3.org/2000/svg">
<path d="M13.611 31.425H35.3888M17.9666 36.4575H31.0332M24.4999 8.27561L27.1918 13.5767L33.211 14.4268L28.8555 18.5531L29.8837 24.3795L24.4999 21.6287L19.1161 24.3795L20.1443 18.5531L15.7888 14.4268L21.808 13.5767L24.4999 8.27561ZM8.31896 42.4965H40.6809C42.5691 42.4965 44.0999 40.9657 44.0999 39.0774V5.65568C44.0999 3.76739 42.5691 2.23663 40.6809 2.23663H8.31895C6.43066 2.23663 4.8999 3.76739 4.8999 5.65568V39.0774C4.8999 40.9657 6.43067 42.4965 8.31896 42.4965Z" stroke="#BFBFBF" stroke-width="3.41905" stroke-linecap="round" stroke-linejoin="round"/>
</svg>
