<svg width="198" height="228" viewBox="0 0 198 228" fill="none" xmlns="http://www.w3.org/2000/svg">
<mask id="mask0_219_871" style="mask-type:luminance" maskUnits="userSpaceOnUse" x="135" y="104" width="63" height="50">
<path d="M135.121 104.827H198V153.229H135.121V104.827Z" fill="white"/>
</mask>
<g mask="url(#mask0_219_871)">
<path d="M135.763 145.052C135.763 145.052 185.889 175.655 197.946 112.897C197.946 112.897 198.943 101.928 192.022 113.962C192.022 113.962 194.301 98.0871 186.737 111.919C186.737 111.919 186.382 98.3126 180.915 109.61C175.444 120.908 175.032 130.451 165.396 133.267C165.396 133.267 153.761 132.607 146.106 130.988C138.455 129.37 135.763 145.052 135.763 145.052Z" fill="#CE6536"/>
</g>
<path d="M39.1436 133.874C39.1436 133.874 -13.5075 160.098 35.1708 202.606C35.1708 202.606 44.2525 209.107 37.2941 197.09C37.2941 197.09 50.0072 207.2 41.8147 193.716C41.8147 193.716 53.8989 200.443 46.8391 190.028C39.7827 179.609 31.6409 174.338 34.1531 164.805C34.1531 164.805 40.7395 155.388 46.1088 149.809C51.4747 144.23 39.1436 133.877 39.1436 133.877V133.874Z" fill="#CE6536"/>
<path d="M125.62 213.303H102.672V162.307H125.62V213.303Z" fill="#F18954"/>
<mask id="mask1_219_871" style="mask-type:luminance" maskUnits="userSpaceOnUse" x="102" y="196" width="37" height="32">
<path d="M102.229 196.536H138.583V227.36H102.229V196.536Z" fill="white"/>
</mask>
<g mask="url(#mask1_219_871)">
<path d="M102.672 197.252V227.165H117.549C117.549 227.165 129.921 227.516 134.759 227.165C139.601 226.816 137.268 222.955 137.268 222.955L125.616 213.3V197.249H102.672V197.252Z" fill="#CE6536"/>
</g>
<path d="M87.1661 213.303H64.2183V162.307H87.1661V213.303Z" fill="#F18954"/>
<mask id="mask2_219_871" style="mask-type:luminance" maskUnits="userSpaceOnUse" x="64" y="196" width="36" height="32">
<path d="M64.144 196.536H99.6325V227.36H64.144V196.536Z" fill="white"/>
</mask>
<g mask="url(#mask2_219_871)">
<path d="M64.2183 197.252V227.165H79.0953C79.0953 227.165 91.4669 227.516 96.3087 227.165C101.147 226.816 98.8175 222.955 98.8175 222.955L87.1627 213.3V197.249H64.2183V197.252Z" fill="#CE6536"/>
</g>
<mask id="mask3_219_871" style="mask-type:luminance" maskUnits="userSpaceOnUse" x="0" y="0" width="171" height="173">
<path d="M0 0H170.609V172.759H0V0Z" fill="white"/>
</mask>
<g mask="url(#mask3_219_871)">
<path d="M1.16668 138.734C4.27395 151.458 11.9796 160.815 21.2946 163.452C47.0319 170.733 112.427 184.783 147.219 151.909C191.167 110.383 159.648 70.1115 147.219 73.2593C147.219 73.2593 157.873 -4.76312 109.485 0.272085C61.0975 5.30397 81.5196 60.6746 81.5196 60.6746C81.5196 60.6746 59.7687 13.4837 31.7999 42.4278C3.8344 71.372 26.0316 104.718 26.0316 104.718C26.0316 104.718 -6.48823 107.378 1.16668 138.734Z" fill="#F18954"/>
</g>
<path d="M149.927 114.019C149.927 114.798 149.849 115.568 149.694 116.331C149.542 117.093 149.312 117.833 149.007 118.553C148.703 119.269 148.331 119.953 147.888 120.599C147.449 121.246 146.945 121.843 146.384 122.394C145.822 122.941 145.21 123.432 144.551 123.867C143.892 124.298 143.195 124.663 142.461 124.961C141.728 125.257 140.97 125.482 140.193 125.635C139.412 125.784 138.624 125.86 137.833 125.86C137.038 125.86 136.25 125.784 135.473 125.635C134.692 125.482 133.934 125.257 133.2 124.961C132.467 124.663 131.77 124.298 131.111 123.867C130.452 123.432 129.84 122.941 129.278 122.394C128.717 121.843 128.213 121.246 127.774 120.599C127.331 119.953 126.959 119.269 126.655 118.553C126.35 117.833 126.124 117.093 125.968 116.331C125.813 115.568 125.735 114.798 125.735 114.019C125.735 113.242 125.813 112.473 125.968 111.71C126.124 110.947 126.35 110.207 126.655 109.488C126.959 108.771 127.331 108.088 127.774 107.441C128.213 106.794 128.717 106.197 129.278 105.646C129.84 105.096 130.452 104.605 131.111 104.174C131.77 103.743 132.467 103.378 133.2 103.079C133.934 102.781 134.692 102.558 135.473 102.406C136.25 102.253 137.038 102.177 137.833 102.177C138.624 102.177 139.412 102.253 140.193 102.406C140.97 102.558 141.728 102.781 142.461 103.079C143.195 103.378 143.892 103.743 144.551 104.174C145.21 104.605 145.822 105.096 146.384 105.646C146.945 106.197 147.449 106.794 147.888 107.441C148.331 108.088 148.703 108.771 149.007 109.488C149.312 110.207 149.542 110.947 149.694 111.71C149.849 112.473 149.927 113.242 149.927 114.019Z" fill="#CE6536"/>
<path d="M91.5446 114.019C91.5446 114.798 91.4669 115.568 91.3113 116.331C91.1558 117.093 90.9259 117.833 90.625 118.553C90.3207 119.269 89.9453 119.953 89.5058 120.599C89.0629 121.246 88.5625 121.843 88.0012 122.394C87.4399 122.941 86.8279 123.432 86.1686 123.867C85.5093 124.298 84.8094 124.663 84.0757 124.961C83.342 125.257 82.588 125.482 81.8069 125.635C81.0293 125.784 80.2415 125.86 79.4469 125.86C78.6523 125.86 77.8679 125.784 77.0869 125.635C76.3092 125.482 75.5518 125.257 74.8181 124.961C74.0844 124.663 73.3879 124.298 72.7286 123.867C72.0659 123.432 71.4572 122.941 70.896 122.394C70.3313 121.843 69.8309 121.246 69.3914 120.599C68.9484 119.953 68.5765 119.269 68.2722 118.553C67.9679 117.833 67.738 117.093 67.5825 116.331C67.4303 115.568 67.3525 114.798 67.3525 114.019C67.3525 113.242 67.4303 112.473 67.5825 111.71C67.738 110.947 67.9679 110.207 68.2722 109.488C68.5765 108.771 68.9484 108.088 69.3914 107.441C69.8309 106.794 70.3313 106.197 70.896 105.646C71.4572 105.096 72.0659 104.605 72.7286 104.174C73.3879 103.743 74.0844 103.378 74.8181 103.079C75.5518 102.781 76.3092 102.558 77.0869 102.406C77.8679 102.253 78.6523 102.177 79.4469 102.177C80.2415 102.177 81.0293 102.253 81.8069 102.406C82.588 102.558 83.342 102.781 84.0757 103.079C84.8094 103.378 85.5093 103.743 86.1686 104.174C86.8279 104.605 87.4399 105.096 88.0012 105.646C88.5625 106.197 89.0629 106.794 89.5058 107.441C89.9453 108.088 90.3207 108.771 90.625 109.488C90.9259 110.207 91.1558 110.947 91.3113 111.71C91.4669 112.473 91.5446 113.242 91.5446 114.019Z" fill="#CE6536"/>
<path d="M135.763 100.081C135.763 100.913 135.682 101.736 135.516 102.552C135.35 103.368 135.104 104.161 134.779 104.93C134.454 105.7 134.055 106.429 133.582 107.123C133.112 107.813 132.575 108.453 131.973 109.043C131.371 109.63 130.718 110.154 130.012 110.619C129.305 111.08 128.558 111.471 127.773 111.79C126.989 112.108 126.177 112.347 125.346 112.509C124.511 112.672 123.669 112.752 122.82 112.752C121.971 112.752 121.129 112.672 120.294 112.509C119.459 112.347 118.651 112.108 117.867 111.79C117.082 111.471 116.335 111.08 115.628 110.619C114.922 110.154 114.269 109.63 113.667 109.043C113.065 108.453 112.528 107.813 112.058 107.123C111.584 106.429 111.185 105.7 110.861 104.93C110.536 104.161 110.289 103.368 110.124 102.552C109.958 101.736 109.874 100.913 109.874 100.081C109.874 99.248 109.958 98.4254 110.124 97.6094C110.289 96.7935 110.536 96.0007 110.861 95.2312C111.185 94.4616 111.584 93.7319 112.058 93.0419C112.528 92.3487 113.065 91.7085 113.667 91.1214C114.269 90.531 114.922 90.0069 115.628 89.5458C116.335 89.0814 117.082 88.6933 117.867 88.3749C118.651 88.0565 119.459 87.8143 120.294 87.6518C121.129 87.4893 121.971 87.4097 122.82 87.4097C123.669 87.4097 124.511 87.4893 125.346 87.6518C126.177 87.8143 126.989 88.0565 127.773 88.3749C128.558 88.6933 129.305 89.0814 130.012 89.5458C130.718 90.0069 131.371 90.531 131.973 91.1214C132.575 91.7085 133.112 92.3487 133.582 93.0419C134.055 93.7319 134.454 94.4616 134.779 95.2312C135.104 96.0007 135.35 96.7935 135.516 97.6094C135.682 98.4254 135.763 99.248 135.763 100.081Z" fill="#EFFFFF"/>
<path d="M108.2 100.081C108.2 100.913 108.119 101.736 107.954 102.552C107.788 103.368 107.541 104.161 107.217 104.93C106.892 105.7 106.493 106.429 106.02 107.123C105.546 107.813 105.012 108.453 104.41 109.043C103.808 109.63 103.156 110.154 102.449 110.619C101.742 111.08 100.995 111.471 100.211 111.79C99.4264 112.108 98.6149 112.347 97.7832 112.509C96.948 112.672 96.1061 112.752 95.2574 112.752C94.4054 112.752 93.5635 112.672 92.7317 112.509C91.8966 112.347 91.0885 112.108 90.3041 111.79C89.5163 111.471 88.7724 111.08 88.0657 110.619C87.3591 110.154 86.7031 109.63 86.1047 109.043C85.5028 108.453 84.9652 107.813 84.4919 107.123C84.0219 106.429 83.6229 105.7 83.2983 104.93C82.9704 104.161 82.7269 103.368 82.5612 102.552C82.3956 101.736 82.311 100.913 82.311 100.081C82.311 99.248 82.3956 98.4254 82.5612 97.6094C82.7269 96.7935 82.9704 96.0007 83.2983 95.2312C83.6229 94.4616 84.0219 93.7319 84.4919 93.0419C84.9652 92.3487 85.5028 91.7085 86.1047 91.1214C86.7031 90.531 87.3591 90.0069 88.0657 89.5458C88.7724 89.0814 89.5163 88.6933 90.3041 88.3749C91.0885 88.0565 91.8966 87.8143 92.7317 87.6518C93.5635 87.4893 94.4054 87.4097 95.2574 87.4097C96.1061 87.4097 96.948 87.4893 97.7832 87.6518C98.6149 87.8143 99.4264 88.0565 100.211 88.3749C100.995 88.6933 101.742 89.0814 102.449 89.5458C103.156 90.0069 103.808 90.531 104.41 91.1214C105.012 91.7085 105.546 92.3487 106.02 93.0419C106.493 93.7319 106.892 94.4616 107.217 95.2312C107.541 96.0007 107.788 96.7935 107.954 97.6094C108.119 98.4254 108.2 99.248 108.2 100.081Z" fill="#EFFFFF"/>
<path d="M126.705 134.269C123.913 137.974 119.044 141.351 111.497 142.78C101.397 144.694 93.915 139.758 89.9287 134.076C84.7352 126.68 85.4588 118.009 94.0232 121.532C113.029 129.346 122.577 121.532 122.577 121.532C129.346 117.435 132.524 126.56 126.705 134.269Z" fill="#1F1D1E"/>
<path d="M126.705 134.269C123.913 137.974 119.044 141.351 111.497 142.78C101.398 144.694 93.9151 139.758 89.9287 134.076C93.7765 130.915 100.522 128.819 108.2 128.819C115.879 128.819 122.902 131.002 126.705 134.269Z" fill="#EF6946"/>
<path d="M106.415 102.177C106.415 102.688 106.364 103.192 106.263 103.693C106.161 104.194 106.013 104.681 105.813 105.152C105.614 105.623 105.367 106.071 105.079 106.496C104.789 106.917 104.461 107.312 104.092 107.67C103.724 108.031 103.321 108.353 102.889 108.638C102.456 108.92 101.999 109.159 101.516 109.355C101.036 109.551 100.539 109.697 100.028 109.796C99.5175 109.896 99.0002 109.945 98.4795 109.945C97.9588 109.945 97.4449 109.896 96.9309 109.796C96.4204 109.697 95.9233 109.551 95.4432 109.355C94.9631 109.159 94.5033 108.92 94.0705 108.638C93.6377 108.353 93.2387 108.031 92.8702 107.67C92.5016 107.312 92.1703 106.917 91.8829 106.496C91.5921 106.071 91.3487 105.623 91.1492 105.152C90.9497 104.681 90.7975 104.194 90.6961 103.693C90.5947 103.192 90.5439 102.688 90.5439 102.177C90.5439 101.669 90.5947 101.162 90.6961 100.661C90.7975 100.164 90.9497 99.6759 91.1492 99.2049C91.3487 98.7339 91.5921 98.2861 91.8829 97.8615C92.1703 97.4369 92.5016 97.0455 92.8702 96.684C93.2387 96.3257 93.6377 96.0007 94.0705 95.7187C94.5033 95.4368 94.9631 95.1946 95.4432 95.0023C95.9233 94.8065 96.4204 94.6573 96.9309 94.5578C97.4449 94.4583 97.9588 94.4085 98.4795 94.4085C99.0002 94.4085 99.5175 94.4583 100.028 94.5578C100.539 94.6573 101.036 94.8065 101.516 95.0023C101.999 95.1946 102.456 95.4368 102.889 95.7187C103.321 96.0007 103.724 96.3257 104.092 96.684C104.461 97.0455 104.789 97.4369 105.079 97.8615C105.367 98.2861 105.614 98.7339 105.813 99.2049C106.013 99.6759 106.161 100.164 106.263 100.661C106.364 101.162 106.415 101.669 106.415 102.177Z" fill="#1F1D1E"/>
<path d="M133.67 103.195C133.67 103.706 133.62 104.21 133.518 104.711C133.417 105.212 133.265 105.696 133.065 106.167C132.866 106.638 132.622 107.086 132.331 107.511C132.044 107.935 131.716 108.327 131.348 108.688C130.979 109.05 130.577 109.371 130.144 109.653C129.711 109.939 129.255 110.178 128.771 110.373C128.291 110.569 127.794 110.715 127.283 110.814C126.773 110.914 126.256 110.964 125.735 110.964C125.214 110.964 124.697 110.914 124.186 110.814C123.676 110.715 123.179 110.569 122.699 110.373C122.215 110.178 121.759 109.939 121.326 109.653C120.893 109.371 120.491 109.05 120.122 108.688C119.754 108.327 119.426 107.935 119.135 107.511C118.847 107.086 118.604 106.638 118.405 106.167C118.205 105.696 118.053 105.212 117.951 104.711C117.85 104.21 117.799 103.706 117.799 103.195C117.799 102.684 117.85 102.18 117.951 101.679C118.053 101.178 118.205 100.694 118.405 100.223C118.604 99.7522 118.847 99.3044 119.135 98.8798C119.426 98.4552 119.754 98.0638 120.122 97.7023C120.491 97.3407 120.893 97.019 121.326 96.737C121.759 96.4518 122.215 96.2129 122.699 96.0172C123.179 95.8215 123.676 95.6756 124.186 95.5761C124.697 95.4766 125.214 95.4268 125.735 95.4268C126.256 95.4268 126.773 95.4766 127.283 95.5761C127.794 95.6756 128.291 95.8215 128.771 96.0172C129.255 96.2129 129.711 96.4518 130.144 96.737C130.577 97.019 130.979 97.3407 131.348 97.7023C131.716 98.0638 132.044 98.4552 132.331 98.8798C132.622 99.3044 132.866 99.7522 133.065 100.223C133.265 100.694 133.417 101.178 133.518 101.679C133.62 102.18 133.67 102.684 133.67 103.195Z" fill="#1F1D1E"/>
</svg>
