<svg width="21" height="21" viewBox="0 0 21 21" fill="none" xmlns="http://www.w3.org/2000/svg">
<path d="M8.21889 8.05446C8.74912 7.49232 9.48159 7.14463 10.2906 7.14463C11.9088 7.14463 13.2205 8.53535 13.2205 10.251C13.2205 11.1088 12.8925 11.8854 12.3623 12.4475M8.21889 8.05446L12.3623 12.4475M8.21889 8.05446L5.00627 4.64831M12.3623 12.4475L15.5753 15.8541M5.00627 4.64831L1.50101 0.931885M5.00627 4.64831C6.52963 3.60703 8.34382 3.0028 10.291 3.0028C14.664 3.0028 18.3657 6.05006 19.6102 10.251C18.9198 12.5815 17.4732 14.5569 15.5753 15.8541M5.00627 4.64831L15.5753 15.8541M15.5753 15.8541L19.0802 19.5701M12.1217 17.3176C11.5287 17.4369 10.9167 17.4992 10.2911 17.4992C5.91809 17.4992 2.2164 14.452 0.971924 10.251C1.31071 9.10734 1.83161 8.04921 2.49856 7.11479L12.1217 17.3176Z" stroke="#102C3D" stroke-width="1.86382" stroke-linecap="round"/>
</svg>
