<svg width="20" height="18" viewBox="0 0 20 18" fill="none" xmlns="http://www.w3.org/2000/svg">
<path d="M5.47691 12.645H14.24M7.22953 14.67H12.4874M9.85845 3.32999L10.9416 5.46308L13.3637 5.80513L11.6111 7.46551L12.0248 9.80999L9.85845 8.70308L7.6921 9.80999L8.10584 7.46551L6.35322 5.80513L8.77528 5.46308L9.85845 3.32999ZM3.34746 17.1H16.3694C17.1293 17.1 17.7452 16.484 17.7452 15.7242V2.27577C17.7452 1.51595 17.1293 0.899994 16.3694 0.899994H3.34746C2.58764 0.899994 1.97168 1.51595 1.97168 2.27577V15.7242C1.97168 16.484 2.58764 17.1 3.34746 17.1Z" stroke="#092831" stroke-width="1.37578" stroke-linecap="round" stroke-linejoin="round"/>
</svg>
