<svg width="49" height="45" viewBox="0 0 49 45" fill="none" xmlns="http://www.w3.org/2000/svg">
<path d="M13.6111 31.4251H35.3889M17.9667 36.4575H31.0334M24.5 8.27567L27.1919 13.5768L33.2111 14.4268L28.8556 18.5531L29.8838 24.3796L24.5 21.6287L19.1163 24.3796L20.1445 18.5531L15.7889 14.4268L21.8081 13.5768L24.5 8.27567ZM8.31908 42.4965H40.681C42.5693 42.4965 44.1 40.9658 44.1 39.0775V5.65574C44.1 3.76746 42.5693 2.23669 40.681 2.23669H8.31907C6.43078 2.23669 4.90002 3.76745 4.90002 5.65574V39.0775C4.90002 40.9658 6.43079 42.4965 8.31908 42.4965Z" stroke="#53BDD9" stroke-width="3.41905" stroke-linecap="round" stroke-linejoin="round"/>
</svg>
