<svg width="49" height="45" viewBox="0 0 49 45" fill="none" xmlns="http://www.w3.org/2000/svg">
<path d="M13.6111 31.4251H35.3889M17.9667 36.4575H31.0333M24.5 8.27567L27.1919 13.5768L33.2111 14.4268L28.8556 18.5531L29.8838 24.3796L24.5 21.6287L19.1162 24.3796L20.1444 18.5531L15.7889 14.4268L21.8081 13.5768L24.5 8.27567ZM8.31905 42.4965H40.6809C42.5692 42.4965 44.1 40.9658 44.1 39.0775V5.65574C44.1 3.76746 42.5692 2.23669 40.6809 2.23669H8.31904C6.43075 2.23669 4.89999 3.76745 4.89999 5.65574V39.0775C4.89999 40.9658 6.43076 42.4965 8.31905 42.4965Z" stroke="#092831" stroke-width="3.41905" stroke-linecap="round" stroke-linejoin="round"/>
</svg>
