<svg width="20" height="20" viewBox="0 0 20 20" fill="none" xmlns="http://www.w3.org/2000/svg">
<path fill-rule="evenodd" clip-rule="evenodd" d="M8.2627 0C12.8703 8.82149e-05 16.5252 3.89681 16.5254 8.60156C16.5254 10.5915 15.8687 12.4352 14.7656 13.9023L18.8154 18.1416C19.2129 18.5577 19.1974 19.2178 18.7812 19.6152C18.3651 20.0124 17.7059 19.9971 17.3086 19.5811L13.3184 15.4043C11.9266 16.5287 10.1776 17.2031 8.2627 17.2031C3.65506 17.203 0 13.3065 0 8.60156C0.000205278 3.89685 3.65519 0.000156879 8.2627 0ZM8.2627 2.08398C4.89512 2.08414 2.08419 4.95646 2.08398 8.60156C2.08398 12.2469 4.895 15.12 8.2627 15.1201C11.6305 15.12 14.4414 12.2469 14.4414 8.60156C14.4412 4.95642 11.6303 2.08407 8.2627 2.08398ZM12.3877 8.45605C12.3944 8.50364 12.3984 8.55214 12.3984 8.60156C12.3984 8.65062 12.3942 8.69884 12.3877 8.74609V8.45605Z" fill="#102C3D"/>
</svg>
