<svg width="25" height="23" viewBox="0 0 25 23" fill="none" xmlns="http://www.w3.org/2000/svg">
<path d="M6.75781 1.25272L3.56229 1.29632C2.27309 1.31391 1.24153 2.36889 1.25287 3.65818L1.38679 18.8851C1.39812 20.1735 2.44674 21.2132 3.73523 21.2135L6.76437 21.2143" stroke="#FF3737" stroke-width="2.50545" stroke-linecap="round"/>
<path fill-rule="evenodd" clip-rule="evenodd" d="M18.0576 4.11237C18.5794 3.65834 19.37 3.71289 19.8242 4.23444L24.0166 9.05085C24.9912 10.1708 25.0115 11.8323 24.0645 12.9757L19.8438 18.0704C19.4023 18.6027 18.6137 18.6765 18.0811 18.2354C17.5484 17.7941 17.4739 17.0045 17.915 16.4717L21.1836 12.5274H7.49609C6.80423 12.5274 6.24316 11.9663 6.24316 11.2745C6.24329 10.5827 6.80431 10.0216 7.49609 10.0216H21.54L17.9346 5.87898C17.4807 5.35716 17.5361 4.56652 18.0576 4.11237Z" fill="#FF3737"/>
</svg>
