<svg width="246" height="239" viewBox="0 0 246 239" fill="none" xmlns="http://www.w3.org/2000/svg">
<path d="M196 0C223.614 0 246 22.3858 246 50V97.6611C224.876 137.077 193.417 195.495 169.974 239H79.0898C80.7515 235.92 82.54 232.61 84.4609 229.046C95.8865 207.848 111.945 178.048 128.413 147.459C122.859 151.553 115.991 156.84 106.507 164.462C84.3998 182.228 42.2961 216.935 22.208 232.744C19.2856 235.044 16.5743 237.143 14.1035 239H10C4.47716 239 0 234.523 0 229V91.7344C4.89482 82.9096 11.7965 71.3267 20.5381 59.833C26.6572 51.7874 32.487 43.7326 42.3584 33.2383C58.4558 16.1252 63.8659 11.1129 67.6797 4.90918C68.7107 3.23214 69.7123 1.59471 70.6855 0H162.784C162.224 1.22199 161.663 2.3611 161.172 3.33398C159.571 6.50296 157.48 10.3132 155.146 14.4209C150.556 22.498 144.178 33.2016 136.562 45.6113C136.934 45.3727 137.302 45.1376 137.665 44.9053C141.967 42.1487 145.35 39.9684 148.029 38.168C150.969 36.1926 151.852 35.4734 151.719 35.5859L156.039 31.9424C165.525 23.9639 171.134 19.3336 178.93 11.292C182.501 7.60802 186.457 3.71286 190.39 0H196Z" fill="#8ACEDD"/>
</svg>
