<svg width="378" height="378" viewBox="0 0 378 378" fill="none" xmlns="http://www.w3.org/2000/svg">
<circle cx="189" cy="189" r="189" fill="#FAF6EB"/>
<path opacity="0.8" d="M229.101 129.438C238.742 129.478 245.957 136.421 248.777 145.331C261.105 142.41 275.972 143.499 281.61 162.501C289.201 188.088 272.656 186.558 263.382 183.962C259.577 182.897 255.598 182.357 251.758 183.1L251.064 183.234C250.837 183.278 250.609 183.316 250.383 183.352C250.641 199.414 251.075 213.658 251.806 216.102C253.609 222.121 242.654 244.484 218.249 216.933C193.843 189.381 210.488 141.346 216.446 133.26C218.605 130.33 223.604 129.414 229.101 129.438Z" fill="#B2C537"/>
<ellipse opacity="0.8" cx="186.321" cy="188.844" rx="39.3854" ry="38.3815" fill="#E3809F"/>
<ellipse opacity="0.8" cx="317.517" cy="227.156" rx="10.4827" ry="10.2155" fill="#29AFD4"/>
<path opacity="0.8" d="M280.706 156.699C289.385 156.699 296.42 163.735 296.421 172.414V218.249C296.42 226.916 289.394 233.942 280.727 233.942C270.376 233.942 263.013 224.108 264.716 213.897C266.884 200.904 266.866 189.725 264.692 176.729C262.984 166.52 270.355 156.699 280.706 156.699ZM283.665 114C292.192 114 299.106 120.444 299.106 128.394C299.106 136.342 292.192 142.786 283.665 142.786C275.137 142.786 268.225 133.791 268.224 128.394C268.224 122.996 275.137 114 283.665 114Z" fill="#F4BA35"/>
<path opacity="0.8" d="M149.828 130.774C156.7 127.445 171.304 123.674 169.038 153.355C167.57 172.59 159.013 183.444 148.068 192.939C160.042 197.503 170.467 204.411 177.974 219.849C190.715 246.053 175.77 247.887 168.339 247.371C165.859 247.199 163.512 246.233 161.31 244.984L131.379 227.996C131.96 237.641 125.305 246.509 115.732 248.504C108.204 250.072 100.592 246.992 96.9618 240.28C86.9607 221.787 70.2981 183.717 86.6783 159.316C101.951 136.566 114.106 153.064 120.251 165.723L143.865 135.928C145.543 133.811 147.472 131.915 149.828 130.774Z" fill="#29AFD4"/>
<line opacity="0.8" x1="2.25526" y1="-2.25526" x2="19.8079" y2="-2.25526" transform="matrix(-0.609602 -0.792708 0.749346 -0.662179 79.486 155.064)" stroke="#F4BA35" stroke-width="4.51052" stroke-linecap="round"/>
<line opacity="0.8" x1="2.25526" y1="-2.25526" x2="19.1682" y2="-2.25526" transform="matrix(-0.894784 -0.4465 0.398319 -0.917247 72.6218 161.928)" stroke="#F4BA35" stroke-width="4.51052" stroke-linecap="round"/>
<line opacity="0.8" x1="2.25526" y1="-2.25526" x2="18.8893" y2="-2.25526" transform="matrix(-1 9.97767e-05 -8.683e-05 -1 70.1446 173.444)" stroke="#F4BA35" stroke-width="4.51052" stroke-linecap="round"/>
</svg>
