<svg width="241" height="270" viewBox="0 0 241 270" fill="none" xmlns="http://www.w3.org/2000/svg">
<path d="M126.776 4.41406C151.36 20.9156 195.553 73.8605 192.146 162.062C210.03 173.074 240.399 198.721 240.399 250.912V269.74L223.455 261.531L185.538 243.161L184.099 253.799L172.324 252.108L120.199 244.625L68.0752 252.109L56.3008 253.799L54.8604 243.161L16.9443 261.531L0 269.74V250.912C0 198.723 30.3678 173.074 48.2529 162.062C44.8457 73.8611 89.0398 20.9159 113.623 4.41406L120.2 0L126.776 4.41406ZM50.0615 189.792C40.2687 198.155 29.8766 211.195 25.6074 231.11L52.2686 218.193C51.5075 209.3 50.7548 199.412 50.0615 189.792ZM190.338 189.793C189.645 199.412 188.892 209.3 188.131 218.193L214.791 231.11C210.522 211.195 200.131 198.156 190.338 189.793ZM120.2 29.1387C99.925 46.9287 67.1127 92.876 72.1934 167.904C73.3832 185.475 74.962 207.797 76.4941 224.16C76.5857 225.138 76.68 226.091 76.7705 227.018L118.522 221.024L120.2 220.783L121.877 221.024L163.628 227.018C163.718 226.091 163.814 225.138 163.905 224.16C165.437 207.797 167.016 185.475 168.206 167.904C173.287 92.876 140.475 46.9287 120.2 29.1387ZM120.2 90.6914C135.713 90.6916 149.934 102.513 149.934 119.044C149.933 135.575 135.713 147.396 120.2 147.396C104.687 147.396 90.466 135.575 90.4658 119.044C90.4659 102.513 104.687 90.6916 120.2 90.6914ZM120.2 114.292C115.905 114.292 114.066 117.292 114.066 119.044C114.067 120.796 115.905 123.797 120.2 123.797C124.496 123.797 126.334 120.796 126.334 119.044C126.334 117.292 124.496 114.292 120.2 114.292Z" fill="#CED196"/>
</svg>
