<svg width="216" height="272" viewBox="0 0 216 272" fill="none" xmlns="http://www.w3.org/2000/svg">
<path fill-rule="evenodd" clip-rule="evenodd" d="M168.529 4.54539C170.043 -1.51515 178.657 -1.51512 180.171 4.54539L200.272 84.9927C201.342 89.2739 206.512 90.9741 209.914 88.1636L215.137 83.8481V241.14C215.137 257.709 201.706 271.14 185.137 271.14H147.905C146.194 267.895 141.798 266.846 138.786 269.334L136.6 271.14H83.4897L96.6283 240.029C98.3734 235.897 95.1329 231.38 90.6596 231.71L6.45646 237.923C0.152634 238.388 -2.49254 230.047 2.92717 226.794L74.4252 183.894C78.3091 181.564 78.3091 175.934 74.4252 173.604L2.92717 130.704C-2.4925 127.451 0.152644 119.111 6.45646 119.576L90.6596 125.788C95.1329 126.118 98.3734 121.601 96.6283 117.469L64.5541 41.52C62.1125 35.7384 69.0643 30.5628 73.9028 34.56L138.786 88.1636C142.188 90.9742 147.358 89.2739 148.428 84.9927L168.529 4.54539Z" fill="#8ACEDD"/>
</svg>
