<svg width="249" height="268" viewBox="0 0 249 268" fill="none" xmlns="http://www.w3.org/2000/svg">
<path fill-rule="evenodd" clip-rule="evenodd" d="M194.479 4.72559C195.848 -1.57515 204.836 -1.57524 206.205 4.72559L221.89 76.9082C222.935 81.7181 229.009 83.2928 232.259 79.5967L248.642 60.9678V237.428C248.642 253.996 235.21 267.428 218.642 267.428H125.111L128.477 257.53C130.162 252.576 125.139 247.989 120.358 250.116L81.4506 267.428H45.2904L91.0873 224.65C95.1506 220.855 92.312 214.052 86.7562 214.271L6.24353 217.436C-0.647942 217.706 -2.47795 208.041 4.03552 205.773L75.8832 180.77C81.2537 178.9 81.2537 171.305 75.8832 169.436L4.03552 144.432C-2.47794 142.165 -0.647917 132.499 6.24353 132.77L86.7562 135.935C92.312 136.153 95.1506 129.35 91.0873 125.555L38.5121 76.4463C33.5658 71.8258 38.863 63.8284 45.0472 66.5801L120.358 100.089C125.139 102.216 130.162 97.6294 128.477 92.6748L105.73 25.7842C103.617 19.571 111.583 14.9616 115.916 19.8896L168.424 79.5967C171.675 83.2928 177.748 81.7181 178.793 76.9082L194.479 4.72559Z" fill="#BFBFBF"/>
</svg>
