<svg width="229" height="276" viewBox="0 0 229 276" fill="none" xmlns="http://www.w3.org/2000/svg">
<path fill-rule="evenodd" clip-rule="evenodd" d="M181.491 4.26015C183.212 -1.42006 191.255 -1.42004 192.976 4.26015L220.079 93.7221C221.108 97.1184 224.809 98.838 228.021 97.5648V245.198C228.02 261.766 214.589 275.198 198.021 275.198H155.391L154.389 271.89C153.294 268.276 149.172 266.56 145.836 268.329L132.874 275.198H70.1514L99.1357 223.427C101.026 220.051 99.2739 215.795 95.5547 214.729L4.3457 188.574C-1.44854 186.912 -1.4486 178.7 4.3457 177.038L95.5547 150.883C99.2739 149.817 101.026 145.561 99.1357 142.185L53.6387 60.9203C50.716 55.7 56.3972 49.8864 61.6836 52.6879L145.836 97.2846C149.172 99.0526 153.294 97.3358 154.389 93.7221L181.491 4.26015Z" fill="#B8C26B"/>
</svg>
