<svg width="220" height="267" viewBox="0 0 220 267" fill="none" xmlns="http://www.w3.org/2000/svg">
<path fill-rule="evenodd" clip-rule="evenodd" d="M172.599 4.75668C173.943 -1.58557 182.996 -1.58555 184.34 4.75668L199.693 77.2635C200.705 82.0418 206.697 83.6736 209.992 80.0682L219.257 69.9305V236.929C219.257 253.497 205.825 266.929 189.257 266.929H103.797L110.013 248.704C111.607 244.031 107.19 239.54 102.491 241.056L30.7723 264.213C24.5504 266.222 20.0579 258.242 25.0027 253.965L80.9686 205.554C84.7421 202.289 83.1145 196.113 78.2225 195.133L4.8211 180.42C-1.60653 179.131 -1.6072 169.943 4.82012 168.654L78.2225 153.942C83.1144 152.962 84.7418 146.786 80.9686 143.521L25.0027 95.1092C20.0581 90.8318 24.5504 82.8523 30.7723 84.8612L102.491 108.017C107.189 109.534 111.607 105.044 110.013 100.371L86.2459 30.6922C84.1472 24.5386 91.967 19.9087 96.3533 24.7079L146.947 80.0682C150.242 83.6735 156.234 82.0424 157.246 77.2645L172.599 4.75668Z" fill="#ECD293"/>
</svg>
