<svg width="39" height="36" viewBox="0 0 39 36" fill="none" xmlns="http://www.w3.org/2000/svg">
<path d="M28.3711 32.4H37.3711V28.8C37.3711 25.8176 34.9535 23.4 31.9711 23.4C30.251 23.4 28.7187 24.2042 27.7299 25.4572M28.3711 32.4H10.3711M28.3711 32.4V28.8C28.3711 27.6188 28.1436 26.4906 27.7299 25.4572M10.3711 32.4H1.37109V28.8C1.37109 25.8176 3.78876 23.4 6.77109 23.4C8.49119 23.4 10.0234 24.2042 11.0123 25.4572M10.3711 32.4V28.8C10.3711 27.6188 10.5986 26.4906 11.0123 25.4572M11.0123 25.4572C12.3394 22.1418 15.5818 19.8 19.3711 19.8C23.1605 19.8 26.4028 22.1418 27.7299 25.4572M24.7711 8.99998C24.7711 11.9823 22.3535 14.4 19.3711 14.4C16.3887 14.4 13.9711 11.9823 13.9711 8.99998C13.9711 6.01765 16.3887 3.59998 19.3711 3.59998C22.3535 3.59998 24.7711 6.01765 24.7711 8.99998ZM35.5711 14.4C35.5711 16.3883 33.9594 18 31.9711 18C29.9828 18 28.3711 16.3883 28.3711 14.4C28.3711 12.4117 29.9828 10.8 31.9711 10.8C33.9594 10.8 35.5711 12.4117 35.5711 14.4ZM10.3711 14.4C10.3711 16.3883 8.75932 18 6.77109 18C4.78287 18 3.17109 16.3883 3.17109 14.4C3.17109 12.4117 4.78287 10.8 6.77109 10.8C8.75932 10.8 10.3711 12.4117 10.3711 14.4Z" stroke="#FAF6EB" stroke-width="2.74286" stroke-linecap="round" stroke-linejoin="round"/>
</svg>
