<svg width="100" height="100" viewBox="0 0 100 100" fill="none" xmlns="http://www.w3.org/2000/svg">
<circle cx="50" cy="50" r="50" fill="#F9B0C4" fill-opacity="0.46"/>
<rect x="29" y="29" width="42" height="42" rx="21" fill="#F9B0C4" fill-opacity="0.46"/>
<path d="M46.2637 61.34C48.1101 66.065 52.2372 68.9 56.9584 68.9C59.0875 68.9 61.2167 68.3468 63.0681 67.2405L68.9001 68.8078L67.2338 62.9995C68.3447 61.1556 68.9001 59.0351 68.9001 56.9146C68.9001 52.3049 66.0651 48.11 61.3401 46.22M46.2637 61.34C54.5426 61.34 61.3401 54.5229 61.3401 46.22M46.2637 61.34C43.5621 61.34 40.9477 60.6408 38.5947 59.2424L31.2744 61.2526L33.2788 53.9111C31.7973 51.6387 31.1001 48.9294 31.1001 46.22C31.1001 37.9171 37.8976 31.1 46.1765 31.1C54.4555 31.1 61.3401 37.9171 61.3401 46.22M42.4401 40.9075C43.2346 38.2724 48.5976 37.5698 49.7894 40.9075C51.0805 44.7723 46.0154 46.5078 46.0154 49.055M46.2201 53.78V54.725" stroke="#E3809F" stroke-width="3.7" stroke-linecap="round" stroke-linejoin="round"/>
</svg>
