<svg width="23" height="23" viewBox="0 0 23 23" fill="none" xmlns="http://www.w3.org/2000/svg">
<path d="M18.3998 18.4001L17.2538 18.3046L17.2529 18.3154L17.2522 18.3263L18.3998 18.4001ZM4.5998 18.4001L5.74744 18.3263L5.74674 18.3155L5.74583 18.3046L4.5998 18.4001ZM14.9498 4.5999V5.7499H16.0998V4.5999H14.9498ZM8.0498 4.5999H6.8998V5.7499H8.0498V4.5999ZM9.77083 9.10461C9.71809 8.47167 9.16224 8.00134 8.5293 8.05408C7.89637 8.10683 7.42603 8.66268 7.47878 9.29561L8.6248 9.20011L9.77083 9.10461ZM8.05378 16.1956C8.10652 16.8285 8.66237 17.2989 9.29531 17.2461C9.92824 17.1934 10.3986 16.6375 10.3458 16.0046L9.1998 16.1001L8.05378 16.1956ZM15.5208 9.29561C15.5736 8.66268 15.1032 8.10683 14.4703 8.05408C13.8374 8.00134 13.2815 8.47167 13.2288 9.10461L14.3748 9.20011L15.5208 9.29561ZM12.6538 16.0046C12.601 16.6375 13.0714 17.1934 13.7043 17.2461C14.3372 17.2989 14.8931 16.8285 14.9458 16.1956L13.7998 16.1001L12.6538 16.0046ZM20.6998 5.7499C21.3349 5.7499 21.8498 5.23503 21.8498 4.5999C21.8498 3.96477 21.3349 3.4499 20.6998 3.4499V4.5999V5.7499ZM2.2998 3.4499C1.66468 3.4499 1.1498 3.96477 1.1498 4.5999C1.1498 5.23503 1.66468 5.7499 2.2998 5.7499V4.5999V3.4499ZM19.5498 4.5999L18.4038 4.5044L17.2538 18.3046L18.3998 18.4001L19.5458 18.4956L20.6958 4.6954L19.5498 4.5999ZM18.3998 18.4001L17.2522 18.3263C17.2014 19.116 16.6497 19.5501 16.1057 19.5501V20.7001V21.8501C17.9748 21.8501 19.4262 20.3588 19.5474 18.4739L18.3998 18.4001ZM16.1057 20.7001V19.5501H6.8998V20.7001V21.8501H16.1057V20.7001ZM6.8998 20.7001V19.5501C6.35207 19.5501 5.79796 19.1122 5.74744 18.3263L4.5998 18.4001L3.45217 18.4739C3.5736 20.3627 5.03419 21.8501 6.8998 21.8501V20.7001ZM4.5998 18.4001L5.74583 18.3046L4.59583 4.5044L3.4498 4.5999L2.30378 4.6954L3.45378 18.4956L4.5998 18.4001ZM3.4498 4.5999V5.7499H19.5498V4.5999V3.4499H3.4498V4.5999ZM14.9498 4.5999H16.0998V2.2999H14.9498H13.7998V4.5999H14.9498ZM8.0498 2.2999H6.8998V4.5999H8.0498H9.1998V2.2999H8.0498ZM8.6248 9.20011L7.47878 9.29561L8.05378 16.1956L9.1998 16.1001L10.3458 16.0046L9.77083 9.10461L8.6248 9.20011ZM14.3748 9.20011L13.2288 9.10461L12.6538 16.0046L13.7998 16.1001L14.9458 16.1956L15.5208 9.29561L14.3748 9.20011ZM13.7998 1.1499V-9.76324e-05H9.19981V1.1499V2.2999H13.7998V1.1499ZM8.0498 4.5999V5.7499H14.9498V4.5999V3.4499H8.0498V4.5999ZM19.5498 4.5999V5.7499H20.6998V4.5999V3.4499H19.5498V4.5999ZM20.6998 4.5999V3.4499H3.4498V4.5999V5.7499H20.6998V4.5999ZM2.2998 4.5999V5.7499H3.4498V4.5999V3.4499H2.2998V4.5999ZM8.0498 2.2999H9.1998L9.19981 2.2999V1.1499V-9.76324e-05C7.92955 -9.76324e-05 6.8998 1.02965 6.8998 2.2999H8.0498ZM14.9498 2.2999H16.0998C16.0998 1.02965 15.0701 -9.76324e-05 13.7998 -9.76324e-05V1.1499V2.2999V2.2999H14.9498Z" fill="#FF3737"/>
</svg>
