<svg width="37" height="36" viewBox="0 0 37 36" fill="none" xmlns="http://www.w3.org/2000/svg">
<path d="M6.67422 28.6454C8.19979 24.1528 13.0065 20.4134 18.0402 20.4134C23.074 20.4134 27.8793 24.1528 29.4049 28.6454M34.2764 17.5931C34.2764 26.3131 27.0072 33.3821 18.0402 33.3821C9.07321 33.3821 1.80402 26.3131 1.80402 17.5931C1.80402 8.87302 9.07321 1.80402 18.0402 1.80402C27.0072 1.80402 34.2764 8.87302 34.2764 17.5931ZM23.484 15.0902C23.484 18.0556 21.0351 20.4144 18.042 20.4144C15.1169 20.4144 12.668 17.9882 12.668 15.0902C12.668 12.1248 15.1169 9.69854 18.042 9.69854C21.0351 9.69854 23.484 12.1248 23.484 15.0902Z" stroke="#102C3D" stroke-width="3.60805" stroke-linecap="round"/>
</svg>
