<svg width="42" height="41" viewBox="0 0 42 41" fill="none" xmlns="http://www.w3.org/2000/svg">
<path d="M7.76921 33.3451C9.54508 28.1155 15.1404 23.7625 21 23.7625C26.8596 23.7625 32.4533 28.1155 34.2292 33.3451M39.9 20.4795C39.9 30.6302 31.4382 38.8589 21 38.8589C10.5618 38.8589 2.09998 30.6302 2.09998 20.4795C2.09998 10.3288 10.5618 2.09998 21 2.09998C31.4382 2.09998 39.9 10.3288 39.9 20.4795ZM27.3369 17.5659C27.3369 21.0179 24.4862 23.7637 21.002 23.7637C17.597 23.7637 14.7464 20.9394 14.7464 17.5659C14.7464 14.114 17.597 11.2897 21.002 11.2897C24.4862 11.2897 27.3369 14.114 27.3369 17.5659Z" stroke="#102C3D" stroke-width="4.2" stroke-linecap="round"/>
</svg>
